<svg width="25" height="25" viewBox="0 0 25 25" fill="none" xmlns="http://www.w3.org/2000/svg">
<g id="&#240;&#159;&#166;&#134; icon &#34;add circle&#34;">
<g id="Group">
<path id="Vector" opacity="0.4" d="M12.1983 24.3966C18.9352 24.3966 24.3966 18.9352 24.3966 12.1983C24.3966 5.46136 18.9352 0 12.1983 0C5.46136 0 0 5.46136 0 12.1983C0 18.9352 5.46136 24.3966 12.1983 24.3966Z" fill="#292D32"/>
<path id="Vector_2" d="M17.0776 11.2835H13.1132V7.31905C13.1132 6.81892 12.6984 6.40417 12.1983 6.40417C11.6982 6.40417 11.2834 6.81892 11.2834 7.31905V11.2835H7.31898C6.81885 11.2835 6.40411 11.6982 6.40411 12.1984C6.40411 12.6985 6.81885 13.1132 7.31898 13.1132H11.2834V17.0777C11.2834 17.5778 11.6982 17.9926 12.1983 17.9926C12.6984 17.9926 13.1132 17.5778 13.1132 17.0777V13.1132H17.0776C17.5777 13.1132 17.9925 12.6985 17.9925 12.1984C17.9925 11.6982 17.5777 11.2835 17.0776 11.2835Z" fill="#292D32"/>
</g>
</g>
</svg>
